<svg width="471" height="421" viewBox="0 0 471 421" fill="none" xmlns="http://www.w3.org/2000/svg">
<path d="M634.549 284.519C641.585 271.935 645.315 261.673 642.089 248.523L662.198 202.237C683.3 194.367 696.128 175.546 711.388 161.441C728.055 146.134 753.808 139.689 761.969 115.622C767.488 109.867 772.919 104.089 781.039 101.76L781.17 101.794C796.619 104.381 788.917 89.8514 794.253 84.9227C804.856 82.9094 803.605 73.7605 805.853 66.6592C821.104 45.3332 816.032 17.0877 831.577 -4.11698C846.448 -16.4827 847.085 -30.7564 838.034 -46.3221C838.046 -46.365 838.046 -46.365 838.046 -46.365C843.947 -72.3909 830.558 -92.703 816.919 -112.114C799.176 -137.452 777.043 -160.101 761.374 -186.516C743.324 -216.991 723.38 -242.986 689.227 -257.825C641.329 -278.538 594.316 -300.081 540.338 -302.217C467.221 -305.083 395.429 -298.736 324.769 -278.258C243.341 -254.66 175.911 -213.122 131.167 -139.965C124.281 -128.767 112.466 -119.847 106.357 -109.093C95.6104 -90.1968 67.285 -78.8487 76.7299 -49.5262C77.6978 -46.6109 71.2053 -29.7488 64.2383 -31.5838C46.8665 -35.9985 46.329 -21.7453 41.5005 -14.4332C29.116 4.64024 18.5715 24.83 7.67008 44.79C-3.81404 65.8419 -1.4119 89.7236 10.9694 105.915C33.1423 134.827 49.8914 167.635 76.0647 193.574C90.6196 215.243 110.419 229.615 136.677 234.84C158.519 253.139 184.794 265.725 202.918 289.184C213.158 302.48 219.163 317.907 230.699 330.571C293.179 399.168 375.671 412.717 463.55 412.891C463.526 412.977 463.514 413.02 463.503 413.063C496.538 424.35 529.535 423.122 562.27 411.205C569.85 408.461 576.42 405.827 580.586 396.183C597.203 358.288 614.288 320.559 634.549 284.519ZM455.659 230.032C453.926 229.035 452.137 228.576 450.417 228.548C448.696 228.52 446.951 229.083 445.254 229.981C445.1 230.033 444.925 229.989 444.802 230.095C444.295 230.746 443.843 231.366 443.292 232.006C440.921 235.168 438.463 238.307 436.017 241.403C426.806 238.394 417.742 240.756 408.646 242.559C406.905 240.916 405.109 239.305 403.312 237.695C401.484 236.03 399.7 234.376 397.903 232.765C398.771 231.655 399.64 230.545 400.496 229.477C402.502 226.958 404.552 224.449 406.546 221.973L406.601 221.941C407.145 222.678 408.128 222.839 408.873 223.352C409.984 224.235 410.904 225.299 412.323 225.571C416.214 227.72 419.584 226.516 422.708 224.008C422.708 224.008 422.708 224.008 422.751 224.019C427.787 226.921 433.232 227.676 438.977 226.668C439.512 225.748 439.992 224.86 440.515 223.983C442.307 220.718 444.218 217.531 446.009 214.267C446.053 214.278 446.109 214.246 446.109 214.246C446.121 214.203 446.132 214.16 446.045 214.138C446.362 213.667 446.592 213.175 446.854 212.736L447.179 213.923C449.915 210.12 449.006 206.484 446.647 203.027C444.386 202.079 442.051 201.066 439.79 200.117C430.975 196.521 422.236 192.989 413.421 189.392C422.766 187.194 432.167 184.964 441.469 182.755C443.678 183.046 445.307 182.223 446.477 180.363C456.81 178.142 467.131 175.965 477.42 173.733C477.432 173.69 477.432 173.69 477.432 173.69C486.112 179.965 495.59 185.893 486.567 198.565C483.926 198.485 481.38 198.567 478.74 198.486C474.303 198.313 469.846 198.042 465.409 198.374C459.501 198.788 457.776 202.483 460.557 207.795C462.686 208.204 464.673 209.127 466.612 210.223C470.415 212.349 474.114 214.679 478.464 214.83C479.955 214.845 481.422 214.946 483.147 214.285C486.906 216.4 494.055 217.914 491.943 222.337C489.461 227.585 482.189 227.189 476.261 225.989C474.727 227.986 472.661 229.202 470.195 229.673C465.505 234.629 460.58 231.663 455.659 230.032ZM558.247 -107.452C561.994 -104.789 563.101 -101.7 559.763 -97.9131C556.357 -100.627 555.194 -103.684 558.247 -107.452ZM448.554 90.5489C445.776 96.3643 441.565 99.9267 434.495 98.801C431.783 99.9897 429.083 101.136 426.371 102.324C425.28 99.0098 426.319 96.6097 429.487 95.1242C430.791 93.1143 431.901 90.9623 432.63 88.6667C437.642 90.1377 443.308 84.6957 448.007 89.4887C448.276 84.6381 443.703 77.5328 452.201 76.5421C461.114 75.5665 468.842 78.7003 464.443 90.5364C459.157 88.5355 453.706 95.7338 448.554 90.5489ZM380.269 15.0818C380.158 15.1453 380.047 15.2087 379.892 15.261C379.892 15.261 379.797 14.5928 379.785 14.6357C379.979 14.7776 380.118 14.9512 380.269 15.0818C384.535 12.499 388.801 9.91639 393.067 7.33354C396.176 10.6147 395.994 14.4761 395.119 18.4813C388.284 24.2666 384.579 18.5795 380.269 15.0818ZM643.185 79.6043C641.841 79.9028 640.509 80.1584 639.109 80.4886C639.438 78.4581 639.779 76.3845 640.151 74.3652C641.21 76.1084 642.225 77.8405 643.185 79.6043ZM541.72 220.406C537.449 213.562 537.754 207.571 545.418 203.01C546.377 204.268 547.305 205.471 548.19 206.664C551.553 211.39 553.33 216.444 549.869 222.36C549.54 222.873 549.552 223.336 549.168 223.881L548.521 223.853C545.718 223.685 543.418 222.543 541.72 220.406ZM556.341 225.815C557.197 225.253 558.054 224.691 558.965 224.098C559.453 225.373 559.897 226.636 560.397 227.868C559.402 227.751 558.383 227.719 557.376 227.644C556.369 227.569 555.35 227.538 554.299 227.452L554.216 227.246C554.949 226.791 555.639 226.324 556.341 225.815ZM576.399 219.011C576.538 219.185 573.335 222.822 572.692 222.611C565.868 219.755 562.568 214.126 561.172 207.193C563.012 208.815 565.2 209.515 567.639 209.313C570.629 212.518 573.687 215.648 576.399 219.011ZM524.703 198.518C523.641 197.97 522.59 197.378 521.527 196.829C521.59 193.903 521.586 191.051 521.649 188.124C527.129 190.773 536.229 191.317 529.351 201.137C527.78 200.228 526.254 199.33 524.703 198.518ZM656.337 76.3145C651.9 74.1176 652.704 70.8757 654.631 67.4622C659.235 69.5639 658.319 72.8693 656.337 76.3145ZM583.372 113.718C578.871 110.907 574.925 107.779 576.221 101.583C581.987 103.707 588.696 105.292 583.372 113.718ZM505.845 228.987C513.724 227.7 519.259 229.305 519.292 238.463C524.792 239.186 530.268 239.994 535.756 240.76C534.111 242.82 532.541 244.946 530.983 247.029C529.698 248.63 528.445 250.285 527.192 251.941C521.78 251.24 516.38 250.497 511.023 249.766C506.026 249.08 500.986 248.384 495.959 247.645C499.403 241.449 494.037 230.967 505.845 228.987ZM782.995 -38.891C791.048 -43.674 796.056 -39.9973 800.193 -33.5097C800.026 -33.4145 799.991 -33.2856 799.824 -33.1905C799.558 -33.0748 799.4 -32.8395 799.122 -32.6809C798.365 -32.1397 797.77 -31.5109 797.382 -30.7831C797.101 -29.9358 796.538 -29.2527 796.982 -27.9892C789.806 -21.6476 783.893 -25.0968 779.436 -30.9312C777.346 -33.6748 779.653 -36.9446 782.995 -38.891ZM707.892 77.9199C707.967 77.9852 707.999 78.0395 708.074 78.1048C694.376 85.898 684.467 84.7328 681.13 67.5996C686.221 70.4703 691.547 71.6539 697.284 69.4948C700.853 72.2963 704.323 75.1184 707.892 77.9199ZM720.31 17.0609C725.037 19.0562 727.472 24.6012 725.308 28.3674C719.932 37.6541 711.601 31.4686 705.205 32.1253C701.676 27.4947 696.402 24.9451 701.1 19.6225C706.765 13.169 713.736 14.3152 720.31 17.0609ZM749.51 -161.056C757.154 -163.691 758.158 -155.341 762.786 -152.819C767.164 -150.408 769.551 -146.714 769.948 -141.738C765.674 -138.79 761.201 -139.846 756.657 -141.151C749.028 -143.294 744.174 -147.529 745.506 -155.877C745.779 -157.876 747.765 -160.492 749.51 -161.056ZM622.79 -0.761509C620.2 -3.21962 619.228 -5.95207 621.393 -9.21249C625.346 -6.95589 626.857 -4.31485 622.79 -0.761509ZM563.349 3.83818C571.521 -0.362593 577.777 -7.26232 586.961 0.567411C584.492 8.80719 581.979 17.036 579.454 25.3075C549.044 44.3503 518.634 63.3929 486.179 83.7495C487.188 72.5142 487.838 64.7726 488.542 56.9993C498.664 46.2646 506.338 34.074 511.317 20.3174C532.412 26.9756 547.117 12.1763 563.349 3.83818ZM595.42 -198.14C596.121 -204.719 594.752 -212.932 603.245 -215.257C610.623 -217.271 613.098 -212.038 612.77 -205.455C631.206 -191.893 655.09 -203.232 674.743 -193.22C668.928 -174.253 650.377 -167.66 637.654 -155.8C627.001 -145.845 615.876 -138.909 608.906 -161.48C605.399 -172.772 591.648 -176.763 578.377 -174.055C575.348 -172.396 572.39 -170.489 569.246 -169.089C562.993 -166.419 557.351 -167.638 556.204 -174.461C555.93 -176.003 563.329 -178.931 567.139 -181.217C573.097 -192.607 583.521 -196.505 595.42 -198.14ZM522.879 -132.074C525.571 -130.326 528.319 -128.608 531.012 -126.86C531.012 -126.86 531.012 -126.86 530.968 -126.871C528.534 -125.841 526.068 -124.865 523.601 -123.889C522.043 -125.852 520.028 -127.013 517.518 -127.566C518.771 -129.727 520.535 -131.205 522.879 -132.074ZM207.709 64.7522C215.203 62.9982 220.1 59.6577 222.581 51.375C225.589 41.5265 232.101 48.2102 235.995 51.1872C241.519 55.3643 243.114 62.2566 235.834 65.2611C227.405 68.7059 220.419 76.8896 209.955 75.0303C209.13 71.5999 208.435 68.2031 207.709 64.7522ZM355.185 -256.838C357.647 -257.631 358.801 -256.231 358.044 -253.161C357.937 -252.775 355.816 -252.538 354.813 -252.795C354.245 -252.941 354.055 -254.277 353.674 -254.927C354.237 -255.61 354.578 -256.672 355.185 -256.838ZM149.424 -37.7107C153.501 -36.0662 156.855 -37.5499 159.971 -40.1981C165.824 -37.0399 168.434 -32.9676 165.663 -26.0007C164.49 -22.9455 158.856 -16.9435 168.654 -16.7266C171.252 -12.1053 173.893 -7.47316 176.534 -2.84079C168.165 5.44728 159.457 0.958313 150.825 -1.94797C147.113 -5.24595 143.389 -8.5008 139.622 -11.7671L137.659 -12.2711C144.883 -19.2901 146.733 -28.8383 150.015 -37.651L149.424 -37.7107ZM17.3518 96.1971L18.0058 93.836L19.6515 95.3162L17.3518 96.1971ZM78.3822 90.5803C69.6447 73.2098 72.0864 66.7561 87.6255 65.6426C88.3867 64.4127 89.3741 63.3787 90.5239 62.4325C90.8989 50.1147 95.4383 46.0389 106.28 54.8C105.19 56.5431 103.894 58.1872 102.566 59.7772C102.351 60.0441 102.169 60.3652 101.955 60.6321C99.8343 65.9268 95.6002 71.0927 100.375 76.9626C96.4385 83.5842 100.841 89.4503 104.659 92.362C130.182 111.881 150.539 140.604 188.457 138.983C188.818 141.559 190.309 142.585 192.886 142.052C187.074 151.226 181.544 160.565 175.269 169.391C175.11 169.626 174.908 169.85 174.749 170.085C171.562 171.979 168.263 173.431 164.798 174.473C164.33 174.306 164.001 174.314 163.525 174.008C142.52 159.097 110.236 161.29 98.2097 132.684C96.2701 128.048 91.5514 126.193 86.1115 127.784C69.2743 118.403 71.6474 104.943 78.3822 90.5803ZM187.043 180.69C183.929 171.017 192.35 167.938 197.588 163.03C193.919 157.214 197.17 151.888 199.259 146.539C200.068 147.16 200.908 147.836 201.705 148.5C206.468 152.39 210.878 156.373 208.742 163.917C207.294 165.43 205.582 166.554 203.572 167.233C204.473 179.327 196.876 181.284 187.043 180.69ZM497.286 329.045C497.421 328.896 497.552 328.93 497.674 328.823C501.453 325.977 504.375 326.728 507.123 328.445C508.844 329.484 510.482 330.825 512.223 331.961C506.518 335.186 502.136 331.946 497.655 329.232C497.512 329.241 497.405 329.122 497.286 329.045ZM469.324 356.119C466.348 341.562 483.325 328.679 473.497 313.557C475.5 314.761 477.49 316.008 479.549 317.18C480.663 317.88 481.678 318.601 482.792 319.3C487.432 322.285 492.039 325.215 496.679 328.2C496.679 328.706 496.679 329.211 496.636 329.706C492.29 331.901 487.969 334.009 483.679 336.172C485.376 338.815 489.678 339.644 493.081 341.023C497.113 342.657 499.965 345.182 495.735 352.694C495.029 352.88 494.323 353.067 493.661 353.265C492.25 353.638 490.806 353.957 489.438 354.341C487.729 354.776 485.965 355.243 484.256 355.678L485.351 358.304L488.273 358.042C481.481 361.816 475.83 355.399 469.324 356.119ZM539.816 331.69C535.28 331.031 530.744 330.372 526.164 329.702C523.457 310.294 506.787 306.381 492.242 300.025C489.252 298.338 486.334 296.393 483.154 294.887C458.886 283.828 431.159 294.364 406.649 284.346C405.686 286.306 404.128 287.377 402.526 288.437C397.451 291.916 390.477 292.975 386.215 297.398C384.994 298.602 383.654 299.729 383.071 301.833C397.125 311.648 412.26 315.029 430.024 314.487C448.644 313.888 454.692 327.304 447.673 347.249C423.465 340.527 399.237 332.697 373.912 332.539C355.692 332.367 343.807 318.602 327.26 316.1C310.547 318.245 299.942 303.062 284.339 302.045C287.415 294.144 295.207 292.835 301.713 289.586C301.895 289.77 302.121 289.966 302.316 290.108C303.874 291.566 305.401 292.969 306.928 294.373C307.368 294.808 307.883 295.308 308.335 295.7C315.612 296.925 322.876 298.192 330.14 299.46C333.173 296.101 333.569 293.489 332.641 291.274C330.963 286.705 324.23 283.689 322.509 279.109C321.981 277.64 321.763 276.067 322.714 274.15L320.791 276.369C318.797 274.799 316.834 273.284 314.902 271.822C308.938 267.716 303.018 263.621 297.129 259.58C296.895 260.256 296.554 260.812 296.289 261.433C296.102 261.937 295.873 262.43 295.599 262.912C295.207 263.822 294.878 264.841 294.343 265.761C295.98 267.102 297.118 268.727 297.801 270.649C297.963 270.737 298.027 270.845 298.189 270.933C301.85 273.574 305.454 276.247 309.059 278.92C305.915 280.319 302.739 281.665 299.575 282.967C298.457 283.462 297.382 283.968 296.232 284.408C293.377 282.571 290.403 280.658 287.504 278.81C284.4 276.864 281.382 274.94 278.332 272.961C259.705 277.466 250.214 262.982 237.719 254.624C229.05 243.248 222.018 230.178 209.309 222.593C194.974 214.13 195.452 206.161 206.339 194.519C212.647 187.771 215.575 178.04 220.055 169.626C234.034 153.399 250.151 141.767 273.418 146.316C274.553 146.608 275.647 147.21 276.721 147.21C289.168 147.142 294.395 153.909 288.659 164.161C282.328 175.547 277.587 158.422 270.756 161.495C253.753 158.785 253.19 158.962 257.502 170.552C259.592 176.33 261.234 181.534 259.122 187.474C257.167 186.099 255.089 184.829 253.411 183.295C248.95 179.161 244.072 175.012 237.768 177.531C235.623 178.36 233.427 184.095 234.339 186.536C236.596 192.725 238.996 201.433 247.43 200.335C253.501 199.502 262.438 201.981 265.843 193.062C274.511 190.276 271.506 198.425 273.6 201.491C278.756 209.022 282.927 206.783 287.478 201.146C291.221 203.487 294.965 205.827 298.708 208.168C302.231 221.257 309.838 231.578 320.703 239.748C320.747 239.759 320.767 239.856 320.81 239.867C321.02 239.783 321.207 239.785 321.472 239.669C329.779 236.837 334.367 238.658 332.013 249.181C330.605 247.853 328.936 246.965 327.12 246.269C326.913 246.17 326.743 245.942 326.568 245.898C325.565 247.157 325.427 247.995 324.701 249.096C318.533 259.053 324.687 263.484 335.326 265.894C335.389 266.002 335.465 266.068 335.54 266.133C335.639 266.112 335.663 266.026 335.707 266.038C335.949 265.502 336.17 264.869 336.38 264.28C336.646 263.658 336.912 263.037 337.122 262.447C339.643 260.428 342.153 258.451 344.631 256.421C345.817 258.38 347.546 259.56 349.794 260.045C350.984 261.316 352.407 262.418 353.799 263.465C354.156 263.694 354.39 264.03 354.703 264.249C357.97 260.719 361.193 257.179 364.436 253.736C370.459 252.57 376.482 251.404 382.505 250.237C382.537 250.292 382.58 250.303 382.624 250.314C395.084 261.33 411.064 266.215 426.603 267.124C453.828 268.689 479.887 272.944 504.893 283.365C507.288 283.658 509.683 283.951 512.078 284.244C524.714 278.431 535.969 291.942 548.565 286.441C557.579 294.549 565.122 302.739 553.295 314.737C548.308 319.755 544.292 325.989 539.816 331.69Z" fill="#FCDECC"/>
</svg>
