<svg width="88" height="86" viewBox="0 0 88 86" fill="none" xmlns="http://www.w3.org/2000/svg">
<path d="M54.9932 54.885C55.3024 55.4356 55.6541 55.9745 55.9401 56.5404C56.6414 57.9232 57.5498 59.1772 58.5936 60.3088C59.5639 61.3576 60.751 62.2302 61.9129 63.0785C62.7694 63.702 63.5116 64.5899 64.7474 64.5356C65.1516 64.6704 65.4163 65.0944 65.9076 64.9992C66.6657 65.1707 67.4276 65.3233 68.211 65.1251C68.3966 65.1993 68.588 65.2451 68.7699 65.0919C69.4874 65.1671 69.9577 64.6344 70.5477 64.4C71.5536 63.9972 72.3217 63.3331 73.001 62.5143C73.6841 61.6766 74.1178 60.6838 74.8996 59.9039C75.9638 58.8223 77.0938 57.8121 78.102 56.6608C79.296 55.2882 79.2483 53.8997 78.9493 52.3657C78.9127 52.1519 78.6729 52.0972 78.4931 51.9945C78.5125 51.8996 78.5415 51.8065 78.5687 51.7229C78.4879 50.7914 78.0241 50.0148 77.5507 49.2364C77.0386 48.4014 76.3891 47.6491 75.9815 46.7451C76.0146 46.3867 75.8658 46.1322 75.51 46.0065C73.834 44.2835 72.2704 42.4535 69.621 42.0066C68.6018 41.8355 67.6329 41.7131 66.6948 42.0301C64.8591 42.6618 63.2146 43.6841 61.9258 45.1277C61.5078 45.6012 61.0475 45.7416 60.5078 45.877C60.2932 45.7974 60.1326 45.9447 59.9507 45.9993C58.856 46.0998 58.1768 46.8693 57.4899 47.5782C56.8919 48.1954 56.352 48.8727 55.7966 49.5274C55.3983 49.4133 55.2975 49.8083 55.0479 49.9488C54.7849 49.9587 54.6572 50.0924 54.6281 50.3333C54.5506 50.4666 54.4732 50.5999 54.3958 50.7332C54.1579 50.7675 54.1597 50.9058 54.2351 51.0775C54.1866 51.2655 54.1479 51.4553 54.1014 51.6338C54.1845 51.5706 54.2677 51.5566 54.3663 51.5652C54.3663 51.5652 54.376 51.5671 54.3779 51.5576C54.3876 51.5594 54.3973 51.5612 54.405 51.5725C54.4708 51.5946 54.5268 51.615 54.5926 51.6372C54.6486 51.8053 54.7587 51.954 54.6794 52.1461C54.631 52.2356 54.5903 52.3363 54.5419 52.4258C54.5206 52.4317 54.5109 52.4299 54.4916 52.4263C54.4974 52.4471 54.5032 52.4678 54.509 52.4886C54.5051 52.5076 54.4916 52.5248 54.478 52.542C54.4452 52.5062 54.422 52.4723 54.3891 52.4366C54.3582 52.3914 54.3157 52.3539 54.2847 52.3087C54.3022 52.2233 54.3854 52.1108 54.2307 52.0818C54.2113 52.0782 54.1591 52.1866 54.1281 52.2399L54.016 52.1992C54.0507 52.4225 54.0641 52.6516 54.2381 52.832C54.238 52.9798 54.2379 53.1276 54.4294 53.1733C54.441 53.1656 54.4506 53.1675 54.4622 53.1598L54.4467 53.1864L54.4294 53.1733C54.4486 53.2754 54.4679 53.3776 54.4872 53.4798C54.6033 53.4523 54.6575 53.3835 54.6595 53.2755C54.5547 53.8373 54.7053 54.3778 54.9932 54.885ZM61.0992 61.9506C61.0567 62.0116 60.989 62.0482 60.927 62.1056C60.7357 61.8628 60.6952 61.6187 60.9738 61.4344C61.1266 61.3251 61.2483 61.7125 61.0992 61.9506ZM61.1463 60.7376C61.0688 60.8709 60.9799 60.9133 60.8522 60.85C60.6976 60.7718 60.6125 60.6475 60.6378 60.4748C60.6552 60.3402 60.7442 60.2485 60.8777 60.2833C61.1175 60.3381 61.1232 60.5559 61.1463 60.7376ZM60.6246 59.753C60.5685 59.7819 60.495 59.7978 60.4428 59.8077C60.4234 59.7548 60.3964 59.6906 60.379 59.6282C60.4583 59.6332 60.5396 59.6287 60.6072 59.6414C60.6169 59.6432 60.6343 59.7548 60.6246 59.753ZM76.7072 53.611C76.7749 53.5744 76.8329 53.536 76.889 53.5071C76.8967 53.5677 76.9025 53.6377 76.9102 53.6983C76.8406 53.6951 76.7652 53.6712 76.7072 53.611ZM64.8865 57.3192C64.871 57.3459 64.8652 57.3744 64.8516 57.3916C64.8419 57.3898 64.8342 57.3785 64.8226 57.3861C64.8033 57.3825 64.7955 57.3712 64.7762 57.3676C64.7472 57.3621 64.7085 57.3549 64.6815 57.34C64.7202 57.1994 64.8053 57.1759 64.9233 57.2374C64.9271 57.2677 64.902 57.2926 64.8865 57.3192ZM65.7587 57.2757C65.9271 57.0412 66.1069 57.1931 66.2867 57.2464C66.1203 57.57 65.9424 57.3593 65.7587 57.2757ZM72.1214 57.8761C72.0923 57.9199 72.0343 57.9583 71.9859 57.9985C71.9724 57.9664 71.9589 57.9343 71.9376 57.8909C71.986 57.8507 72.0324 57.82 72.0808 57.7798C72.0943 57.8119 72.1252 57.8571 72.1214 57.8761ZM70.9043 55.234C71.0184 55.216 71.1808 55.3548 71.0782 55.4144C70.4011 55.8295 70.9655 56.4575 70.7564 56.9405C70.6829 57.1041 70.6093 57.2677 70.5357 57.4313C69.793 57.5287 69.0714 57.965 68.298 57.5739C68.1277 57.6701 67.8453 57.7748 67.8203 57.5534C67.7663 57.1294 68.1511 57.2606 68.3948 57.2471C68.4394 57.1274 68.4839 57.0076 68.5304 56.8784C68.691 56.7803 68.9018 56.7311 68.9831 56.5296C68.9677 56.4085 68.9078 56.3086 68.8789 56.2046C68.8189 56.154 68.7454 56.1205 68.6565 56.1137L68.6913 56.0906C68.5444 55.9744 68.3588 55.851 68.5001 55.6509C68.6123 55.4945 68.7805 55.6048 68.9081 55.6682C69.1208 55.7573 69.32 55.8635 69.5211 55.9603C69.4882 56.0231 69.4572 56.0765 69.4243 56.1393C69.4223 56.1488 69.4088 56.1659 69.4069 56.1754L69.4146 56.1867C69.4939 56.1917 69.5712 56.2062 69.6486 56.2207C69.6951 56.0914 69.6855 55.9911 69.5366 55.9337L69.5346 55.9431C69.4034 55.4062 70.0919 55.4267 70.2314 54.9897C70.3379 54.6648 70.6161 55.2687 70.9043 55.234ZM62.3116 54.886C62.0874 54.6075 61.9289 54.4005 62.1109 53.9517C63.5186 54.5307 64.5102 55.5737 65.4864 56.6433C65.4341 56.7025 65.3877 56.7332 65.3296 56.7716C65.229 56.8217 65.1033 56.7982 64.9873 56.7272C64.7553 56.5852 64.5368 56.4261 64.2487 56.4115C63.6127 55.8884 62.8508 55.5388 62.3116 54.886Z" fill="#656565"/>
<path d="M27.5243 51.5171C27.772 51.0415 28.095 50.6392 28.4509 50.2725C28.9228 49.7798 29.4874 49.3734 30.0018 48.9182C31.547 47.5432 32.205 45.8445 31.947 43.8166C31.8334 42.9976 32.0484 42.0924 31.3316 41.4263C31.7031 40.6883 31.1641 40.1344 30.9595 39.515C30.4847 38.1063 29.6232 36.9208 28.8429 35.6814C28.2963 34.8207 27.7883 33.9672 27.06 33.2103C26.2794 32.4141 25.3827 32.0394 24.3255 31.8119C23.6529 31.6662 23.0497 31.6714 22.4252 31.9287C21.6596 32.2383 21.0157 32.7382 20.3737 33.2286C20.1803 33.2909 20.0276 33.4001 19.9656 33.6052C19.6969 33.5942 19.6311 33.7691 19.5885 33.9777C18.9812 34.7405 18.2328 35.3587 17.3743 35.8282C16.334 36.4016 15.5662 37.2623 14.7481 38.0743C14.4464 38.3723 14.2471 38.7092 14.3281 39.1479C14.2198 39.1867 14.1135 39.216 14.0052 39.2548C13.8719 39.1708 13.6825 39.1157 13.609 39.2299C13.5219 39.3613 13.69 39.4716 13.8273 39.5367C13.7905 39.6677 13.7537 39.7987 13.7265 39.9315C13.5778 39.8248 13.4791 39.9147 13.3785 40.014C13.1563 39.9724 12.8568 39.6209 12.7329 40.031C12.6458 40.3101 13.0189 40.3012 13.2431 40.3334C13.1289 40.6468 13.5406 40.6944 13.5617 40.9347C13.3818 41.1768 13.206 41.0059 13.0418 40.9259C12.982 40.5306 12.6457 40.5563 12.4407 40.6755C12.1584 40.8295 12.34 41.0703 12.5061 41.2393C12.5892 41.3238 12.6897 41.3721 12.7844 41.449L12.765 41.5438L12.6915 41.6088C12.301 41.6539 12.3125 41.9909 12.2196 42.2492C12.1518 42.3843 12.1924 42.4805 12.3199 42.5438L12.2793 42.6445L12.2657 42.7602C12.2539 43.0633 12.2325 43.3646 12.4334 43.609C12.4854 44.0422 12.7967 43.9429 13.077 43.897C12.9492 44.3753 12.5971 44.8708 13.2425 45.2477C13.3237 45.2924 13.3313 45.4514 13.3777 45.5684C14.0204 47.5305 15.3031 49.0609 16.8237 50.4093C18.4023 51.8179 20.0931 53.0209 22.2113 53.6047C24.3393 54.1904 26.4524 53.5225 27.5243 51.5171ZM19.6687 39.7246C19.7364 39.6881 19.7944 39.6497 19.8621 39.6131C19.8756 39.6944 19.891 39.7663 19.8968 39.8363C19.8967 39.9348 19.8309 40.0111 19.7459 39.9853C19.5913 39.9563 19.6377 39.8272 19.6687 39.7246ZM24.9025 52.858C24.8522 52.8584 24.7903 52.8665 24.742 52.8575C24.7227 52.8538 24.715 52.7933 24.7015 52.7613C24.7614 52.7626 24.8136 52.7527 24.8735 52.754C24.8793 52.7748 24.887 52.8354 24.9025 52.858ZM23.8977 52.1281C23.9498 52.2166 23.9807 52.3603 23.9536 52.4439C23.9129 52.5446 23.7776 52.5685 23.6559 52.4768C23.4974 52.3683 23.4878 52.2188 23.6039 52.0928C23.6832 51.9993 23.8397 52.0188 23.8977 52.1281ZM18.3708 45.2922C18.3128 45.3306 18.2277 45.4033 18.191 45.3866C18.0808 45.3364 18.0499 45.242 18.1138 45.1259C18.1834 45.0306 18.2607 44.9958 18.3631 45.084C18.4385 45.1572 18.4443 45.2272 18.3708 45.2922ZM15.7284 41.2814C15.8443 41.5986 15.4596 41.5659 15.3552 41.7334C15.0808 41.554 15.3012 41.3589 15.34 41.1692C15.483 41.1566 15.6686 41.1323 15.7284 41.2814ZM21.7389 43.5889C21.6036 43.6128 21.5321 43.5206 21.567 43.3991C21.5786 43.3422 21.6579 43.2487 21.6985 43.2465C21.8184 43.2492 21.8802 43.3396 21.8975 43.4512C21.8492 43.4913 21.8027 43.5713 21.7389 43.5889ZM15.7437 45.6274C15.7804 45.5949 15.8829 45.5846 15.9505 45.5972C16.0529 45.6361 16.1708 45.6976 16.0838 45.829C16.0122 45.9338 15.8981 45.9518 15.7609 45.8868C15.6836 45.823 15.6643 45.7209 15.7437 45.6274Z" fill="#656565"/>
<path d="M50.0359 41.7644C51.2827 41.4071 52.3016 40.692 52.9999 39.5327C53.6827 38.4002 54.5008 37.3421 55.6164 36.5466C55.8155 36.4067 55.976 36.2103 56.123 36.031C57.4245 34.4727 58.3608 32.7869 58.4662 30.6993C58.5579 29.0227 58.9627 27.3359 58.0513 25.757C58.2183 24.1536 56.6242 23.3135 56.3408 21.9015C55.7244 21.6777 55.8137 20.7983 55.1316 20.6508C54.9654 20.5803 54.7973 20.5193 54.6388 20.4601C54.49 20.4027 54.3431 20.3357 54.1944 20.2783C53.5239 19.9755 52.8959 19.5133 52.0822 19.6661C51.5217 19.5612 50.9748 19.4883 50.4316 19.7411C50.335 19.723 50.2055 19.6692 50.1668 19.8096C50.1571 19.857 50.2344 19.9207 50.2827 19.979C50.2246 20.1158 50.1685 20.2432 50.1104 20.38C49.7103 20.5217 49.877 19.4599 49.2428 20.0108C48.9393 20.269 48.6323 19.6108 48.2494 19.9133C47.6887 20.3499 46.9833 20.267 46.3493 20.424C45.7462 20.577 45.2301 20.7954 44.8626 21.3666C44.6111 21.7627 44.4601 22.2071 44.0038 22.5254C43.6075 22.7958 43.6768 23.3898 43.8447 23.8447C44.0474 24.375 44.5035 24.3521 44.9713 24.2723C45.4679 24.4933 45.9472 24.4058 46.417 24.1688C47.1977 24.3741 47.9668 24.5871 48.7476 24.7924C49.136 24.9538 49.5128 25.1229 49.9012 25.2842C49.963 25.3254 50.0325 25.3777 50.0944 25.4189C50.129 25.642 50.3165 25.7067 50.4904 25.7885C50.917 26.8925 51.1135 28.0421 51.1226 29.2255C50.9641 29.1663 50.8057 29.107 50.6492 29.0383C50.3883 28.8417 50.1179 28.6434 49.8493 28.4356C49.7952 28.3565 49.7257 28.304 49.6697 28.2345C49.3123 27.8721 48.8311 27.6737 48.4331 27.3628C48.1646 27.2042 47.9096 27.0284 47.5733 27.0048C47.3184 26.5829 46.9861 26.2941 46.4313 26.4561C46.2864 26.429 46.1337 26.3906 45.9887 26.3634C45.4497 25.908 44.8157 26.0649 44.2011 26.1271C44.1199 26.1808 44.0967 26.2453 44.1198 26.3285C44.1527 26.3642 44.1894 26.3809 44.2357 26.3995C44.2454 26.4013 44.2628 26.4143 44.2725 26.4161L44.2821 26.4179C44.2918 26.4198 44.2898 26.4292 44.2995 26.4311L44.2879 26.4387C44.2125 26.5132 44.1429 26.6086 44.0347 26.5489C44.0231 26.5566 43.9941 26.5511 43.9844 26.5493C44.0095 26.6229 43.9901 26.6685 43.9186 26.6748C43.88 26.6676 43.8143 26.5963 43.8201 26.5678C43.8453 26.4937 43.9033 26.5046 43.967 26.5362L43.9786 26.5285L43.9806 26.5191C43.9786 26.5285 43.9883 26.5304 43.9883 26.5304C43.9979 26.5322 43.9999 26.5227 44.0096 26.5245C44.0328 26.4599 44.0657 26.3971 44.0889 26.3325C43.9324 26.2146 43.7778 26.0872 43.571 26.1666C42.9775 26.3706 42.3455 26.4688 41.808 26.8409C41.0269 27.374 40.4641 28.1155 39.8009 28.7594C39.5068 29.3149 39.1548 29.8595 39.5777 30.4901C39.4927 30.5136 39.4231 30.5596 39.3631 30.6075C39.1446 30.793 39.0478 31.1196 38.7559 31.2225C38.6786 31.1588 38.6536 31.0851 38.6381 31.0133C38.6208 30.9018 38.6731 30.7933 38.7272 30.6755C38.9727 30.6525 39.1022 30.5586 38.9342 30.3007C38.8588 30.4244 38.7814 30.5576 38.7059 30.6813C38.3097 30.7548 38.2631 31.081 38.1567 31.3564C38.1393 31.3926 38.1315 31.4305 38.1045 31.4648C38.0774 31.4499 38.0697 31.4386 38.0523 31.4255C37.8688 31.2434 38.3058 30.823 37.8149 30.7705C37.5093 31.2352 37.8125 31.7154 37.7659 32.1892C38.0788 32.6712 37.8233 33.3816 38.4319 33.7418C38.3872 34.2061 38.8413 34.3896 38.9977 34.7537C40.378 37.9664 42.9475 40.0232 46.0333 41.517C47.2622 42.1312 48.6827 42.1511 50.0359 41.7644ZM47.9312 22.4042C47.792 22.4963 47.7031 22.4895 47.7013 22.3021C47.8559 22.1833 47.9487 22.1712 47.9312 22.4042ZM57.1774 26.2039C57.1658 26.2608 57.0962 26.3068 57.0556 26.3583C57.015 26.3113 56.9745 26.2643 56.9455 26.2096C56.9378 26.1983 56.9958 26.16 57.0209 26.1352C57.1273 26.0566 57.191 26.0882 57.1774 26.2039ZM54.7388 21.4438L54.7485 21.4456C54.7465 21.4551 54.7465 21.4551 54.7388 21.4438C54.7369 21.4533 54.7369 21.4533 54.7388 21.4438ZM50.6242 21.1557C50.7305 21.1264 50.8291 21.0858 50.9354 21.0565C51.0455 21.2051 51.227 21.3967 50.9448 21.5014C50.709 21.5754 50.6066 21.3888 50.6242 21.1557ZM48.2569 20.4169C48.1564 20.4178 48.0694 20.4508 47.9882 20.5045C48.052 20.4377 48.0792 20.2064 48.2569 20.4169ZM51.0273 22.7674C50.9809 22.8473 50.8378 22.86 50.7721 22.8871C50.575 22.8698 50.5325 22.7831 50.577 22.6634C50.6331 22.5361 50.7568 22.5198 50.8612 22.5492C50.9771 22.5709 51.1008 22.6532 51.0273 22.7674ZM48.514 24.1677C48.6919 23.9352 48.8794 23.9998 49.059 24.1516C48.8946 24.4655 48.7072 24.2531 48.514 24.1677ZM48.6066 36.0413C48.6974 36.1371 48.7882 36.2328 48.7494 36.3733C48.5794 36.3218 48.303 36.2995 48.6066 36.0413ZM55.3305 32.2982C55.373 32.3849 55.3498 32.4494 55.2609 32.4919C55.2106 32.4431 55.1527 32.383 55.1044 32.3247C55.1856 32.3202 55.259 32.3045 55.3305 32.2982ZM48.8454 30.0102C48.8319 30.0274 48.7797 30.0373 48.7372 30.049C48.7217 30.0264 48.6966 30.002 48.6812 29.9794C48.7276 29.9487 48.772 29.9275 48.8184 29.8968C48.83 29.9384 48.8609 29.9836 48.8454 30.0102ZM49.2831 32.1404C49.4106 32.2037 49.5459 32.2783 49.6734 32.3416C49.6695 32.3605 49.6656 32.3795 49.6637 32.389C49.6521 32.4459 49.6405 32.5028 49.6482 32.5633C49.5554 32.6247 49.3987 32.7529 49.3814 32.7398C49.2056 32.569 49.1361 32.3689 49.2831 32.1404ZM56.1513 33.5351C56.1223 33.6774 56.0197 33.8354 55.8053 33.7558C55.6178 33.6912 55.6836 33.5164 55.6276 33.3976C55.2666 32.6112 56.3063 32.7763 56.3028 32.1061C56.6001 32.7624 56.223 33.1349 56.1513 33.5351ZM51.65 29.6886C51.6732 29.624 51.7641 29.5229 51.7912 29.5378C51.9129 29.5803 51.9418 29.6842 51.907 29.8057C51.8567 29.9046 51.8044 30.0129 51.7541 30.1118C51.6595 29.9858 51.5881 29.8444 51.65 29.6886ZM46.662 28.9612C46.5943 29.0962 46.4995 29.1671 46.3353 29.0871C46.403 28.952 46.4939 28.8509 46.662 28.9612ZM39.8934 29.1903C39.9263 29.1768 39.9746 29.1366 39.992 29.1497C40.0364 29.1777 40.0654 29.2323 40.0963 29.2775C40.0634 29.2911 40.0306 29.3046 39.9861 29.3258C39.9552 29.2806 39.9243 29.2355 39.8934 29.1903ZM48.9017 33.4181C48.8225 33.4131 48.7529 33.4099 48.6814 33.4162C48.6582 33.3823 48.6447 33.3503 48.6331 33.3087C48.7143 33.3042 48.7858 33.2979 48.8631 33.3123C48.8824 33.316 48.8901 33.3765 48.9017 33.4181ZM42.1827 31.0962C45.677 31.3764 47.8928 33.495 50.2497 35.512C49.2967 35.8062 48.4425 35.6166 47.5922 35.4082C47.0647 35.1912 46.5391 34.9648 46.0135 34.7383C45.7586 34.3656 45.3566 34.2214 44.9644 34.079C44.9393 34.0054 44.8871 33.966 44.8137 33.9326C44.7056 33.6268 44.4157 33.5725 44.1549 33.4744C43.413 32.8332 42.6808 32.1939 42.1827 31.0962ZM40.0337 30.8118C40.1109 31.0725 40.1339 31.3526 39.7415 31.4071C39.5754 31.3366 39.5309 31.2593 39.5174 31.178C39.5097 31.1175 39.5214 31.0606 39.5543 30.9978C39.5891 30.9256 39.6336 30.8551 39.6781 30.7846C39.8057 30.7002 39.9758 30.6041 40.0337 30.8118ZM40.9679 36.9938C41.0066 36.9025 41.1516 36.782 41.2309 36.787C41.3295 36.7956 41.3584 36.9487 41.3042 37.0665C41.2539 37.2147 41.1746 37.3574 40.9929 37.3135C40.9446 37.3044 40.9292 37.085 40.9679 36.9938Z" fill="#656565"/>
<path d="M30.4468 18.679C30.9461 17.9547 31.4687 17.2149 32.1131 16.567C32.831 15.854 33.6978 15.2969 34.3094 14.5147C35.0564 13.5608 35.6991 12.5283 36.3669 11.5201C37.0192 10.5386 37.1629 9.39289 37.1267 8.2923C37.1 7.53838 37.0153 6.67506 36.4083 6.05882C36.0333 5.6831 35.8363 5.22246 35.674 4.73879C35.2122 3.90338 34.3997 4.14541 33.6667 4.14608C33.3862 4.14283 33.4325 4.40771 33.3473 4.57898C32.9625 4.39852 32.5312 4.39657 32.1193 4.34899C31.5894 4.19062 31.3319 4.76318 30.8773 4.82586C30.8503 4.76167 30.8232 4.6975 30.7943 4.6428C30.4982 4.91254 30.1094 4.89887 29.7477 4.94938C29.6664 5.0524 29.5832 5.16492 29.5019 5.26794C29.1906 5.26875 29.146 5.48701 29.0994 5.7148C29.0317 5.84992 28.9639 5.98506 28.8942 6.12968C28.5982 6.35015 28.3021 6.57059 28.0061 6.79107C27.722 6.41267 27.1224 6.49749 26.8692 6.06577C26.8828 5.9008 26.8229 5.80085 26.6527 5.79854C26.6063 5.73072 26.5309 5.70677 26.4574 5.72256C26.2911 5.652 26.1345 5.58326 25.9682 5.5127C25.1966 5.21053 24.4154 4.90657 23.6438 4.6044C23.3653 4.49313 23.0946 4.49167 22.8527 4.69273C22.7753 4.67824 22.6883 4.66194 22.6109 4.64745C22.1024 4.43396 21.6632 4.66704 21.2105 4.86803C20.874 4.94295 20.5181 4.96499 20.2607 5.24197C19.036 6.02758 18.0684 7.07817 17.0911 8.12691C16.5921 8.26009 16.2341 8.58718 15.9322 8.98393C15.7638 9.16919 15.6592 9.38613 15.6378 9.63833C15.5662 9.79244 15.5062 9.93886 15.4345 10.093C15.3493 10.2642 15.2448 10.4319 15.177 10.6162C15.1499 10.6999 15.0686 10.8522 15.2427 10.8848C15.3877 10.9119 15.411 10.7487 15.4691 10.6611C15.5136 10.5906 15.5561 10.5296 15.591 10.4573C15.6529 10.4984 15.7206 10.5111 15.7941 10.4953C15.8984 10.7711 16.0085 11.0183 16.0006 11.3519C15.9983 12.0511 15.6305 12.7213 15.8603 13.4147C15.8255 13.487 15.7906 13.5593 15.7557 13.6316C15.8659 13.6818 15.9781 13.7225 16.0787 13.7709C16.1251 13.7895 16.1618 13.8062 16.2082 13.8247C16.2314 13.9079 16.2062 13.9821 16.1443 14.0394C16.4343 14.2908 16.113 14.6347 16.2889 14.9041C16.2734 14.9308 16.2753 14.9705 16.2676 15.0085C16.2598 15.0465 16.2424 15.0826 16.2443 15.1224C16.3777 15.2558 16.5943 15.3259 16.5632 15.5763C16.4238 15.9641 16.7679 16.196 16.8761 16.5021C16.8469 16.743 17.0519 16.8208 17.2085 16.9388C17.1775 17.0907 17.2161 17.1964 17.3883 17.2385C17.512 17.37 17.6357 17.5016 17.7594 17.6332C17.9138 18.3026 18.3623 18.7611 18.8669 19.1906C19.1026 19.6092 19.5319 19.8177 19.9244 20.0588C20.3961 20.6496 21.1309 20.8366 21.7651 21.1721C24.9286 22.7894 28.4822 21.563 30.4468 18.679ZM17.4391 16.1542C17.4101 16.1488 17.385 16.1244 17.3482 16.1077C17.3618 16.0412 17.385 15.9766 17.4083 15.9119C17.4102 15.9024 17.4121 15.893 17.4141 15.8835C17.5707 15.903 17.5978 15.9671 17.5997 16.0562C17.5997 16.1054 17.588 16.1624 17.5764 16.2194C17.53 16.2008 17.4836 16.1822 17.4391 16.1542ZM18.2551 16.5337C18.4059 16.5817 18.4949 16.6377 18.3613 16.8C18.2647 16.7326 18.2106 16.6535 18.2551 16.5337ZM21.5797 16.8705C21.5352 16.8425 21.5024 16.8068 21.4598 16.7692C21.4347 16.7448 21.4076 16.7299 21.3902 16.7168C21.4232 16.5062 21.6669 16.542 21.7714 16.4236C21.8082 16.4403 21.8352 16.4552 21.87 16.4815C21.8797 16.4833 21.8894 16.4851 21.9068 16.4982C21.9242 16.5113 21.9532 16.5168 21.9706 16.5299C21.9125 16.6668 21.866 16.7961 21.8098 16.9235C21.7286 16.8787 21.6609 16.866 21.5797 16.8705ZM21.2415 16.3145C21.2376 16.3335 21.1622 16.3588 21.1351 16.3438C21.0268 16.2841 21.0172 16.1838 21.0792 16.0772L21.0985 16.0808C21.1913 16.1179 21.2667 16.1911 21.2415 16.3145ZM20.057 14.1022C20.208 13.8545 20.3588 13.9025 20.529 14.0033C20.5657 14.0201 20.6005 14.0463 20.6353 14.0725C20.6623 14.186 20.6894 14.2994 20.7164 14.4128L20.6835 14.4756L20.668 14.5023L20.6757 14.6122C20.3778 14.5465 20.1574 14.3969 20.057 14.1022ZM19.7188 13.6446C19.6375 13.6491 19.5834 13.6193 19.5467 13.5533C19.6028 13.5244 19.6589 13.4955 19.7034 13.4742C19.7111 13.5348 19.7091 13.5935 19.7188 13.6446ZM19.4751 17.4421C19.5234 17.4019 19.5718 17.3617 19.6182 17.331C19.6318 17.3631 19.6704 17.4196 19.6569 17.4367C19.6182 17.4787 19.5698 17.519 19.5214 17.5592C19.5002 17.5158 19.4963 17.4855 19.4751 17.4421ZM22.7033 17.2189C22.2468 17.1926 22.0593 17.0294 22.4134 16.6227C22.9337 16.6314 22.568 17.0458 22.7033 17.2189ZM23.1546 15.8451L23.2223 15.8084L23.2494 15.8726L23.1546 15.8451ZM24.5276 16.2007C24.3942 16.1166 24.2608 16.0325 24.3692 15.8459C24.5568 15.9106 24.6786 16.0024 24.5276 16.2007ZM30.5796 8.39643L30.5854 8.41724C30.0497 8.23809 30.0944 7.97052 30.462 7.64521C30.6186 7.71396 30.7268 7.9707 30.9571 7.77732C31.0906 7.66437 31.255 7.59665 31.311 7.81407C31.3303 7.91623 31.017 7.87727 31.0362 8.07795C30.8853 8.17779 30.7305 8.29659 30.5796 8.39643ZM30.7419 8.78156C31.0125 9.02933 31.2928 9.27895 30.697 9.49255C30.6256 9.25253 30.266 8.99791 30.7419 8.78156ZM31.3426 10.3131C31.1009 10.2678 30.983 10.0585 31.0798 9.87957C31.2134 9.61882 31.2 9.24186 31.6159 9.17193C31.8151 9.17968 31.848 9.26464 31.7086 9.40606C31.7085 9.60313 31.6891 9.79659 31.7006 9.98598C31.7179 10.2454 31.5844 10.3583 31.3426 10.3131ZM35.8507 10.9505C35.8449 10.9789 35.8372 11.0169 35.8159 11.0227C35.7366 11.067 35.6844 11.0277 35.6864 10.9197C35.6883 10.9102 35.7541 10.8831 35.7947 10.8808C35.8237 10.8863 35.8353 10.9279 35.8507 10.9505ZM35.147 10.5132C35.0463 10.7111 34.8488 10.9895 34.5046 10.9546C34.3016 10.6702 34.2554 10.4053 34.3909 10.0858C34.5071 9.81191 34.7199 9.70396 34.9481 9.76641C35.3639 9.89355 35.2612 10.2981 35.147 10.5132ZM33.7212 7.31944C33.6747 7.44869 33.5664 7.48753 33.4426 7.45449C33.2415 7.40697 33.2222 7.25553 33.3132 7.10505C33.3712 7.01739 33.4796 6.92934 33.5995 7.03062C33.7039 7.1093 33.7773 7.19199 33.7212 7.31944ZM34.4107 5.27085L34.4127 5.26135L34.4224 5.26316L34.4107 5.27085ZM24.5021 5.4155C24.4498 5.67176 24.1753 5.34442 24.007 5.43115C23.9722 5.45419 23.9316 5.45643 23.889 5.46817C23.7769 5.37819 23.7189 5.26884 23.7692 5.1206C23.8795 5.17081 23.9878 5.23046 24.1019 5.26169C24.2469 5.28885 24.5816 5.07563 24.5021 5.4155ZM25.0732 8.27174L25.0655 8.26049L25.0868 8.25461C25.079 8.24331 25.0751 8.26225 25.0732 8.27174C25.1408 8.43222 25.3883 8.54758 25.2045 8.7595C25.1774 8.79385 25.0401 8.778 24.9975 8.74048C24.7559 8.5474 25.0112 8.42766 25.0732 8.27174ZM29.4564 11.1423C29.5067 11.1912 29.5744 11.2039 29.646 11.1975C29.5705 11.3214 29.611 11.4176 29.7231 11.5076C29.7617 11.7612 29.69 11.9646 29.425 12.0825C29.3014 11.7538 29.083 11.4468 29.4564 11.1423ZM19.7571 10.5576C19.8268 10.413 19.8984 10.2589 19.9701 10.1048C20.3705 10.0122 20.7709 9.91969 21.1713 9.82715C21.6471 9.9064 22.0317 10.3825 22.5869 10.1219C23.1653 10.043 23.4435 10.5976 23.9366 10.7392C24.1842 10.8053 24.3698 10.9287 24.5768 10.7014C24.658 10.894 24.5031 11.2099 24.8512 11.2751C25.5531 11.6726 26.2434 12.0778 26.9452 12.4754C26.9548 12.7235 27.1308 12.7959 27.3319 12.8434C27.4054 12.8769 27.4769 12.9198 27.5504 12.9533C27.6219 12.9962 27.6838 13.0374 27.7554 13.0804C27.8326 13.3412 27.8383 13.5098 27.4669 13.5585C27.1884 13.595 27.1225 13.8684 27.1997 14.1292C27.2885 14.4316 27.48 14.4774 27.7489 14.3405C27.7412 14.3292 27.745 14.3102 27.7393 14.2894L27.7586 14.3423C27.7586 14.3423 27.7393 14.2894 27.7373 14.2989C27.745 14.3102 27.7547 14.312 27.7625 14.3233C27.8128 14.1751 27.8264 14.0101 27.9097 13.8976C28.0916 13.6459 28.3372 13.6722 28.4996 13.9095C28.6155 14.079 28.6193 14.3064 28.3678 14.4071C28.1589 14.4961 27.9209 14.5796 27.7605 14.3328C27.7586 14.3423 27.7566 14.3518 27.7547 14.3613L27.745 14.3595C27.7952 14.6546 27.9537 14.8617 27.4236 15.1467C26.3731 15.7186 25.3114 15.4114 24.263 15.5796C23.6944 15.4633 23.1938 14.8669 22.5475 15.3766C22.7181 14.6399 22.0799 14.5204 21.6564 14.2341C21.4458 13.9385 21.119 13.8182 20.8173 13.673C20.2898 12.6676 19.6462 11.739 19.7571 10.5576ZM18.9051 12.4674C18.9632 12.3798 19.0386 12.3052 19.116 12.2211C19.1605 12.2984 19.2398 12.3527 19.2301 12.4002C19.2184 12.5064 19.1661 12.6148 19.0269 12.6085C18.9901 12.5917 18.9012 12.4864 18.9051 12.4674Z" fill="#656565"/>
<path d="M31.4243 68.4759C31.2096 68.4456 30.9755 68.5102 31.0393 68.7389C31.1107 69.0282 31.3468 68.7571 31.5054 68.7671C31.3734 69.5602 30.8373 70.4156 31.8698 71.013C31.8968 71.0279 31.9142 71.0903 31.9084 71.1188C31.8498 72.2903 32.7217 73.0349 33.2047 73.963C33.1834 74.1166 33.2549 74.2089 33.398 74.2455L33.4057 74.2568C33.3785 74.4882 33.5022 74.6198 33.6956 74.7053C34.2444 75.754 35.1491 76.5344 36.0365 77.2525C37.5329 78.4787 39.1957 79.4306 41.331 79.1998C42.4606 79.0763 43.2442 78.4348 43.9602 77.7313C44.6491 77.0621 45.2954 76.3062 45.4971 75.3192C45.532 75.1483 45.6268 74.9789 45.7738 74.9473C46.5514 74.7776 46.782 74.0423 47.287 73.585C48.3299 72.657 49.3207 71.6897 50.0582 70.4877C50.4201 69.8952 50.7337 69.2938 50.7902 68.6244C50.87 67.6441 50.9092 66.5183 50.045 65.9327C49.4282 65.5117 49.1963 65.0741 49.1618 64.4567C49.1273 63.9378 48.8045 63.5522 48.4216 63.4608C47.3541 63.182 46.2712 62.8807 45.1553 62.7899C45.1553 62.7899 45.1572 62.7804 45.1475 62.7786C45.1475 62.7786 45.1359 62.7863 45.1263 62.7845C45.0934 62.798 45.0721 62.804 45.0411 62.808C44.9967 62.8292 44.9444 62.8391 44.8999 62.8604C44.8342 62.8874 44.7684 62.9146 44.7045 62.9322C44.5422 62.6456 44.4341 62.3888 44.9427 62.356C44.7823 62.1092 44.7303 61.6757 44.2833 62.1438C43.9021 62.5355 43.4436 62.8635 43.0198 63.2178C42.5769 63.2235 42.2754 62.8812 41.8712 62.7957C41.061 62.437 40.3147 61.9129 39.4096 61.773C39.0848 61.5939 38.7677 61.4261 38.3827 61.5413C38.3093 61.5078 38.2377 61.5141 38.1603 61.5489C37.9321 61.5357 37.7039 61.5225 37.5239 61.7154C36.0094 61.9048 34.9549 62.7913 34.0956 63.9508C33.9331 63.9597 33.8557 64.0438 33.8053 64.192L33.7938 64.1997C33.3586 64.266 33.3699 64.7017 33.1319 64.933C32.3268 66.0238 31.3515 67.0138 31.4243 68.4759ZM35.3485 68.531C35.2479 68.6304 35.1647 68.6444 35.1493 68.5232C35.1435 68.5024 35.1377 68.4816 35.1435 68.4532C35.1609 68.4663 35.1803 68.4699 35.1996 68.4735C35.2557 68.4939 35.3021 68.5124 35.3485 68.531ZM43.1997 70.8882C43.1204 70.9325 43.041 70.9768 42.9617 71.021C42.9269 71.0441 42.8921 71.0671 42.8476 71.0883C42.8302 71.0259 42.8496 70.9803 42.8689 70.9347C42.8748 70.9062 42.869 70.8854 42.8728 70.8664L42.9406 70.7806L42.9812 70.6798C43.1689 70.646 43.221 70.7346 43.1997 70.8882ZM44.991 70.2284C45.0548 70.3094 45.1185 70.4396 45.0933 70.5137C45.0197 70.7265 44.8438 70.6049 44.7355 70.5452C44.6446 70.4986 44.6215 70.3662 44.7241 70.2573C44.8034 70.213 44.8885 70.091 44.991 70.2284ZM38.2933 62.372C38.303 62.3738 38.303 62.3738 38.2933 62.372C38.303 62.3738 38.3011 62.3833 38.3107 62.3851C38.3088 62.3946 38.3088 62.3946 38.3088 62.3946C38.2991 62.3928 38.3011 62.3833 38.2933 62.372ZM36.8824 64.4136C36.834 64.5523 36.743 64.6042 36.6077 64.5296C36.6619 64.4117 36.7528 64.3597 36.8824 64.4136ZM42.6788 68.3272C42.6884 68.329 42.6981 68.3308 42.7058 68.3421C42.6962 68.3403 42.6865 68.3384 42.6846 68.3479L42.6788 68.3272ZM44.7385 68.4666C44.7094 68.6089 44.5972 68.6175 44.4735 68.6337C44.34 68.5989 44.2511 68.4936 44.2821 68.391C44.3228 68.2409 44.437 68.1243 44.6342 68.1908C44.7754 68.237 44.7618 68.3527 44.7385 68.4666ZM38.2553 64.9663C38.2573 64.9075 38.2612 64.8393 38.2631 64.7805C38.2651 64.7218 38.2767 64.6648 38.2961 64.6192C38.3658 64.4746 38.4838 64.339 38.6617 64.4512C38.741 64.5054 38.7429 64.5945 38.7158 64.6781C38.7099 64.7065 38.7041 64.735 38.6886 64.7617C38.6189 64.857 38.5319 64.9392 38.4525 65.0328C38.3868 65.0106 38.321 64.9884 38.2553 64.9663ZM48.7698 67.1128C48.793 67.1467 48.7504 67.3063 48.6962 67.3257C48.437 67.4151 48.2398 67.2993 48.0813 67.0923C48.3251 66.8817 48.5649 66.838 48.7698 67.1128ZM37.8216 61.9781C37.839 61.9913 37.8409 62.031 37.8545 62.0631C37.8448 62.0613 37.8332 62.069 37.8235 62.0672C37.8022 62.0731 37.781 62.0789 37.7597 62.0848C37.7462 62.0527 37.7404 62.0319 37.7365 62.0016C37.7365 62.0016 37.7462 62.0035 37.7578 61.9958C37.7791 61.9899 37.812 61.9763 37.8216 61.9781ZM35.276 66.5762C35.4366 66.4782 35.5914 66.3593 35.7964 66.3878L35.7829 66.3065C35.8254 66.2948 35.8564 66.2907 35.8989 66.2789C36.1523 66.218 36.4038 66.1666 36.6475 66.1039C36.7113 66.1355 36.777 66.1577 36.8409 66.1893C36.8776 66.2061 36.9047 66.221 36.9414 66.2377C37.3437 66.3327 37.7362 66.426 38.1404 66.5115C38.1501 66.5133 38.1501 66.5133 38.1578 66.5246C38.2525 66.6015 38.355 66.6404 38.473 66.6526C38.5213 66.6617 38.5697 66.6707 38.62 66.6703C39.2832 66.962 39.9465 67.2538 40.6097 67.5455C40.6368 67.5604 40.6522 67.5831 40.6793 67.598C41.3019 67.9905 41.7948 68.5755 42.5025 68.846C42.5586 68.8663 42.6108 68.9057 42.6765 68.9278L42.6572 68.9242C42.6398 69.0096 42.5933 69.0896 42.5372 69.1678C42.4365 69.3165 42.3533 69.4782 42.5485 69.6528C42.5659 69.6659 42.5737 69.6772 42.5814 69.6885C42.5795 69.698 42.5775 69.7075 42.564 69.7246C42.4788 69.8959 42.4478 70.0478 42.6159 70.2074L42.6256 70.2092C42.6237 70.2187 42.614 70.2169 42.614 70.2169C42.5888 70.291 42.5714 70.3764 42.5462 70.4505C42.5442 70.46 42.5442 70.46 42.5326 70.4677C42.3894 70.6774 42.2945 70.8961 42.2751 71.1388L42.2383 71.2205L42.2208 71.306C42.0931 71.4397 41.9557 71.5717 41.83 71.6959C41.7777 71.7551 41.7158 71.8125 41.6655 71.8622C40.4046 71.6457 39.1553 71.3723 38.0609 70.6845C37.9449 70.6135 37.7613 70.4806 37.6857 70.703C37.6354 70.8512 37.8131 71.1604 37.4457 70.9931C37.1692 70.8723 37.4401 70.6767 37.4731 70.5153C37.4828 70.4679 37.3957 70.4023 37.3474 70.344C37.3358 70.3024 37.3165 70.2988 37.303 70.2667C37.1465 69.9516 36.7423 69.9646 36.518 69.7354L36.5161 69.7449C36.5161 69.7449 36.5064 69.7431 36.5045 69.7526L36.5064 69.7431L36.4967 69.7413C36.4967 69.7413 36.5064 69.7431 36.5083 69.7336C36.174 69.1586 35.772 68.6202 35.5499 67.9873C35.5248 67.9137 35.49 67.8381 35.4669 67.755C35.5463 67.5629 35.4148 67.42 35.3801 67.246C34.9025 67.0777 34.7846 66.8685 35.276 66.5762Z" fill="#656565"/>
<path d="M10.8213 72.7839C11.2374 72.3199 12.0245 72.2505 12.1892 71.5424C12.3482 70.8135 13.3691 71.1229 13.5454 70.4071C13.5997 70.1907 14.0231 70.3291 14.1065 69.9703C14.3662 68.8465 15.1266 68.0233 16.0069 67.3506C17.0555 66.542 17.8934 65.5363 18.797 64.602C19.3175 64.0689 19.8399 63.4278 19.411 62.5789L19.3685 62.5906L19.3801 62.583L19.3704 62.5812L19.382 62.5735C19.3917 62.5753 19.3936 62.5658 19.4033 62.5676L19.4014 62.5771C19.4091 62.5392 19.4169 62.5012 19.415 62.4615C19.2357 61.3244 18.1008 60.6881 17.8326 59.5935C17.8152 59.5311 17.6179 59.5139 17.5038 59.4826C17.4537 59.286 17.2894 59.0582 17.1405 59.0993C16.6879 59.2017 16.721 58.7941 16.5218 58.6386C16.5161 58.5686 16.4774 58.512 16.4117 58.4899C16.2552 58.2241 16.2225 57.7943 15.7177 57.956C15.3135 58.0182 15.408 58.4399 15.1971 58.6368C14.5763 58.6782 14.5179 59.554 14.3071 59.5539C13.607 59.5411 13.9162 60.0916 13.6995 60.3171C13.5428 60.2483 13.4306 60.3061 13.3532 60.4394C13.1772 60.5641 12.978 60.4579 12.7924 60.4822C12.7228 60.4298 12.6629 60.3791 12.601 60.3379C12.348 59.7092 11.9189 59.3037 11.1801 59.3329C11.2399 59.5313 11.5106 59.6805 11.4351 59.9028C11.4138 59.958 11.3925 60.0131 11.3073 60.0859C11.0927 60.0062 10.8878 59.9285 10.6732 59.8489C10.6983 59.7747 10.7332 59.7024 10.7583 59.6283C10.7796 59.5732 10.799 59.5275 10.8203 59.4724C10.8261 59.4439 10.8416 59.4173 10.8474 59.3888C11.0352 59.0595 10.6368 58.9947 10.5809 58.7773C8.95869 58.0695 7.4463 58.2493 5.98567 59.3059C5.4672 59.6818 5.19034 60.2507 4.64483 60.5623C3.97551 60.9395 3.62322 61.5829 3.211 62.1757C3.11424 62.3054 3.21279 62.4618 2.89367 62.5005C2.07363 62.6327 2.07169 62.6915 1.91841 63.6875L2.47554 63.3188C2.07893 63.6387 2.26811 64.3342 1.60856 64.5162C1.4693 64.559 1.25053 65.0403 1.60623 65.3138C1.77429 65.6704 1.41441 66.0563 1.65403 66.4066C1.90161 66.3249 1.66591 65.857 2.02752 65.9051C2.35046 65.9458 2.36774 66.2053 2.29412 66.4674C2.23019 66.682 2.1991 66.9324 1.94185 67.0123C1.97088 66.9684 1.97091 66.9192 1.969 66.8794C1.95548 66.8473 1.95938 66.8283 1.91297 66.8098C1.8859 66.7949 1.80656 66.8884 1.74852 66.9267C1.81039 66.9679 1.86258 67.0072 1.91672 67.0371C1.89338 67.2987 1.9687 67.5198 2.17361 67.6961C2.13098 67.8556 2.19473 67.9365 2.35137 67.956C2.43252 68.0993 2.51367 68.2425 2.60449 68.3876C2.65659 68.624 2.73385 68.8356 2.96972 68.9585C3.19975 69.1593 3.19961 69.4548 3.29811 69.7098C3.55305 70.3782 3.8544 71.016 4.44786 71.5015C5.87642 72.6657 7.4018 73.5524 9.38806 73.2643C9.86962 73.2165 10.4015 73.1683 10.8213 72.7839ZM7.42806 63.6946C7.33135 63.7257 7.20181 63.6719 7.09546 63.652C7.09163 63.5725 7.09748 63.4947 7.12266 63.4206C6.96025 63.3311 6.99124 63.2285 7.08412 63.1179C7.28135 63.1843 7.38572 63.3123 7.38368 63.5188C7.47649 63.5559 7.5035 63.6693 7.42806 63.6946ZM8.77093 62.2317C8.72831 62.3912 8.68762 62.5412 8.64499 62.7007C8.29509 62.448 8.46146 62.3215 8.77093 62.2317ZM12.7553 61.2044C12.7243 61.2084 12.6818 61.2201 12.6624 61.2165C12.6914 61.2219 12.7243 61.2084 12.7553 61.2044ZM7.31417 59.4365C7.32774 59.3701 7.40323 59.2955 7.46899 59.2684C7.70111 59.1641 7.5985 59.3716 7.61199 59.4529C7.64095 59.5569 7.57132 59.6029 7.4669 59.5735C7.41471 59.5342 7.30641 59.4745 7.31417 59.4365ZM7.49342 60.6721C7.5108 60.7345 7.52623 60.8064 7.54166 60.8782C7.49136 60.9279 7.42167 61.0233 7.37332 61.0142C7.22635 60.9966 7.23997 60.8808 7.30964 60.7855C7.35222 60.7245 7.43733 60.701 7.49342 60.6721ZM5.36144 62.3124C5.40786 62.2817 5.44267 62.2586 5.48716 62.2374C5.50068 62.2695 5.53163 62.3147 5.52581 62.3432C5.52 62.3716 5.45808 62.3798 5.4252 62.3933C5.39234 62.3576 5.3769 62.335 5.36144 62.3124ZM1.73597 64.9735C1.79017 64.8556 1.83087 64.7056 1.94301 64.7463C1.97975 64.763 1.98554 64.7838 1.98939 64.8141C1.99322 64.8936 1.90612 65.0251 1.86546 65.1259C1.78424 65.1304 1.7301 65.1005 1.69339 65.0345C1.71466 65.0287 1.72048 65.0002 1.73597 64.9735ZM11.7274 70.8056C11.5515 70.6347 11.6289 70.4522 11.7064 70.2696C11.9925 70.4414 12.0679 70.6132 11.7274 70.8056ZM2.96292 67.0754C2.9958 67.0619 3.04419 67.0217 3.06159 67.0348C3.10606 67.0628 3.13502 67.1175 3.17561 67.1645C3.14273 67.178 3.10984 67.1916 3.06729 67.2033C3.02476 67.1658 2.99383 67.1206 2.96292 67.0754Z" fill="#656565"/>
<path d="M15.8437 13.8899C15.7275 13.8183 15.7219 13.6979 15.7357 13.5811C15.4972 13.5165 15.3477 13.6079 15.4307 13.8424C15.4923 14.0828 15.6805 14.0484 15.8437 13.8899Z" fill="#656565"/>
<path d="M15.2231 11.6222C15.2465 11.557 15.2311 11.4845 15.2274 11.4043C15.1731 11.4239 15.0801 11.4363 15.0626 11.4728C15.0315 11.5266 15.0546 11.6105 15.0506 11.6794C15.1165 11.652 15.2173 11.6509 15.2231 11.6222Z" fill="#656565"/>
<path d="M19.3827 62.6315L19.4048 62.6252C19.4148 62.6271 19.4048 62.6253 19.3827 62.6315C19.3927 62.6334 19.3927 62.6334 19.3827 62.6315Z" fill="#656565"/>
<path d="M38.1795 29.9256C38.1871 29.9867 38.1831 30.0556 38.1907 30.1167C38.2353 30.0952 38.2703 30.0719 38.3129 30.06C38.2723 30.0126 38.222 29.9634 38.1795 29.9256Z" fill="#656565"/>
</svg>
