<svg width="30" height="31" viewBox="0 0 30 31" fill="none" xmlns="http://www.w3.org/2000/svg">
<circle cx="15" cy="15.5" r="15" fill="#FF0000"/>
<path d="M13.059 19.6523C13.0737 19.6022 13.0884 19.5449 13.1104 19.4875C13.2351 19.638 13.3379 19.7885 13.4699 19.9175C15.1502 21.5872 18.7895 21.4081 21.0347 18.6849C22.9864 16.32 23.1405 12.9663 22.9277 11.6118C22.4581 8.63067 19.9708 6.00066 16.0306 5.56352C12.7362 5.19804 9.11891 6.40196 7.18186 9.37596C5.42824 12.0633 5.80978 15.2308 7.1305 16.836C7.51937 17.309 7.9963 17.6673 8.57594 17.8895C8.86944 18.0041 9.11157 17.9038 9.19228 17.6171C9.30234 17.2373 9.39038 16.8504 9.49311 16.4705C9.55914 16.2269 9.40506 16.0764 9.20695 15.8327C7.64411 13.9194 8.4292 9.73427 11.8924 8.17203C14.908 6.81045 19.6626 7.72056 19.9194 11.9558C20.0515 14.077 19.3618 17.0725 17.6008 18.3266C15.6858 19.681 13.4479 18.3624 13.9322 16.5064C14.5118 14.2562 15.2676 12.7369 14.9814 11.5688C14.5192 9.6841 11.8704 9.86326 11.1367 12.1421C10.7991 13.1956 10.8725 14.2418 11.2614 15.2666C11.2981 15.3598 11.3201 15.4458 11.2981 15.5461C9.6692 22.2322 9.51512 22.655 9.4711 23.8876C9.4691 23.9363 9.46765 23.985 9.46668 24.0337C9.45545 24.6003 9.81254 25.1065 10.3447 25.3014C10.6915 25.4284 11.0843 25.2915 11.2732 24.9742C11.2966 24.9348 11.3196 24.8952 11.3421 24.855C12.1712 23.4218 12.2593 22.7338 13.0664 19.6523H13.059Z" fill="white"/>
</svg>
