<svg width="282" height="53" viewBox="0 0 282 53" fill="none" xmlns="http://www.w3.org/2000/svg">
<path d="M2.32031 2C35.9671 9.34574 69.8434 10.42 104.22 10.9821C157.137 11.8472 212.227 9.03675 264.33 20.0304C264.427 20.0509 284.967 24.7092 278.551 26.5525C268.548 29.4264 255.357 26.887 245.32 25.5724C212.24 21.24 180.796 12.1552 147.029 15.7253C135.676 16.9257 123.822 18.0291 112.698 20.6932C105.786 22.3487 107.339 24.7224 113.57 26.3861C126.262 29.7752 140.987 29.3089 154.008 29.6794C161.615 29.8958 169.214 29.7376 176.822 29.741C179.723 29.7423 183.259 29.7216 186.222 30.043C187.136 30.1421 189.249 30.1688 188.815 30.9808C188.101 32.3168 181.152 33.0222 180.586 33.1314C173.337 34.529 166.079 35.8847 158.824 37.2472C142.898 40.2383 126.693 42.2339 110.942 46.0806C107.767 46.856 94.566 51.0754 105.827 51.3958C121.691 51.8472 137.844 49.4421 153.625 47.9862" stroke="#F5F85C" stroke-width="3" stroke-linecap="round"/>
</svg>
