<svg width="313" height="167" viewBox="0 0 313 167" fill="none" xmlns="http://www.w3.org/2000/svg">
<path d="M213.508 287.09C216.836 280.977 218.59 275.987 217.012 269.571L226.495 247.072C236.556 243.294 242.635 234.157 249.888 227.325C257.811 219.911 270.1 216.839 273.933 205.135C276.555 202.345 279.134 199.545 283.008 198.431L283.071 198.448C290.46 199.75 286.74 192.65 289.276 190.263C294.337 189.31 293.715 184.849 294.769 181.395C301.998 171.044 299.498 157.268 306.867 146.978C313.94 140.992 314.205 134.039 309.837 126.43C309.843 126.409 309.843 126.409 309.843 126.409C312.591 113.744 306.137 103.811 299.567 94.3171C291.018 81.9237 280.38 70.8289 272.82 57.9164C264.111 43.0196 254.509 30.3002 238.148 22.9789C215.203 12.7588 192.678 2.13631 166.879 0.951769C131.931 -0.639795 97.6422 2.26177 63.933 12.0513C25.0864 23.3323 -7.0213 43.3919 -28.2022 78.9182C-31.462 84.356 -37.0833 88.671 -39.9729 93.8944C-45.0566 103.073 -58.561 108.527 -53.9672 122.839C-53.4967 124.262 -56.5529 132.461 -59.8872 131.548C-68.2006 129.351 -68.4183 136.295 -70.7056 139.844C-76.5713 149.105 -81.5547 158.914 -86.7093 168.611C-92.1393 178.838 -90.9259 190.48 -84.965 198.403C-74.2902 212.549 -66.1964 228.579 -53.6181 241.288C-46.6035 251.885 -37.1026 258.941 -24.5408 261.557C-14.053 270.531 -1.46292 276.733 7.26203 288.212C12.1917 294.718 15.1036 302.251 20.651 308.452C50.6957 342.042 90.1525 348.864 132.147 349.183C132.136 349.225 132.13 349.246 132.125 349.267C147.942 354.855 163.706 354.344 179.316 348.625C182.931 347.308 186.063 346.042 188.028 341.355C195.864 322.934 203.925 304.596 213.508 287.09ZM127.874 260.064C127.043 259.574 126.187 259.346 125.365 259.327C124.543 259.309 123.711 259.579 122.902 260.012C122.828 260.037 122.745 260.015 122.686 260.066C122.446 260.382 122.232 260.683 121.97 260.993C120.846 262.527 119.68 264.05 118.519 265.552C114.109 264.062 109.785 265.189 105.443 266.043C104.607 265.238 103.744 264.448 102.881 263.658C102.003 262.842 101.145 262.032 100.283 261.242C100.694 260.703 101.106 260.165 101.513 259.647C102.464 258.425 103.437 257.208 104.383 256.007L104.409 255.991C104.671 256.352 105.141 256.433 105.499 256.685C106.032 257.118 106.475 257.639 107.154 257.775C109.019 258.832 110.626 258.255 112.112 257.041C112.112 257.041 112.112 257.041 112.133 257.047C114.547 258.474 117.151 258.856 119.893 258.381C120.147 257.934 120.373 257.502 120.621 257.076C121.468 255.491 122.373 253.943 123.22 252.357C123.241 252.363 123.267 252.347 123.267 252.347C123.273 252.326 123.278 252.305 123.237 252.294C123.387 252.066 123.495 251.827 123.619 251.614L123.778 252.193C125.075 250.347 124.631 248.573 123.493 246.882C122.411 246.414 121.292 245.914 120.209 245.446C115.987 243.67 111.801 241.926 107.579 240.15C112.039 239.104 116.525 238.042 120.964 236.991C122.02 237.139 122.797 236.742 123.35 235.838C128.282 234.784 133.208 233.751 138.118 232.691C138.124 232.67 138.124 232.67 138.124 232.67C142.289 235.75 146.834 238.664 142.557 244.815C141.295 244.768 140.079 244.801 138.817 244.755C136.696 244.659 134.566 244.515 132.446 244.665C129.624 244.851 128.81 246.647 130.154 249.242C131.172 249.447 132.124 249.903 133.054 250.442C134.877 251.488 136.651 252.633 138.73 252.718C139.443 252.729 140.144 252.782 140.966 252.465C142.769 253.505 146.189 254.262 145.192 256.412C144.02 258.962 140.544 258.75 137.708 258.149C136.98 259.118 135.997 259.705 134.819 259.928C132.592 262.331 130.23 260.872 127.874 260.064ZM175.971 95.8988C177.769 97.2065 178.306 98.7145 176.721 100.551C175.086 99.2193 174.522 97.7266 175.971 95.8988ZM124.097 192.082C122.785 194.908 120.782 196.633 117.401 196.066C116.108 196.638 114.821 197.189 113.528 197.761C112.998 196.143 113.488 194.976 114.998 194.261C115.615 193.285 116.14 192.239 116.482 191.123C118.881 191.853 121.573 189.216 123.832 191.564C123.947 189.201 121.743 185.727 125.801 185.267C130.057 184.816 133.759 186.363 131.689 192.119C129.158 191.129 126.572 194.622 124.097 192.082ZM91.2587 155.129C91.2058 155.159 91.1529 155.19 91.0792 155.215C91.0792 155.215 91.0318 154.889 91.0263 154.91C91.1195 154.98 91.1863 155.065 91.2587 155.129C93.2902 153.882 95.3218 152.635 97.3533 151.388C98.848 152.995 98.7716 154.876 98.3641 156.825C95.1138 159.626 93.3281 156.845 91.2587 155.129ZM217.073 187.268C216.431 187.41 215.795 187.531 215.127 187.688C215.279 186.7 215.436 185.69 215.608 184.708C216.119 185.56 216.609 186.406 217.073 187.268ZM168.973 255.603C166.913 252.257 167.042 249.339 170.692 247.137C171.154 247.753 171.601 248.341 172.027 248.925C173.647 251.237 174.51 253.704 172.872 256.577C172.717 256.827 172.724 257.052 172.541 257.317L172.232 257.301C170.892 257.212 169.79 256.649 168.973 255.603ZM175.974 258.278C176.382 258.007 176.79 257.735 177.224 257.448C177.46 258.071 177.676 258.688 177.918 259.289C177.442 259.229 176.955 259.211 176.474 259.172C175.992 259.133 175.505 259.115 175.003 259.07L174.963 258.97C175.312 258.75 175.64 258.524 175.974 258.278ZM185.541 255.016C185.608 255.101 184.087 256.865 183.779 256.761C180.51 255.351 178.918 252.599 178.232 249.217C179.115 250.012 180.163 250.359 181.328 250.268C182.766 251.837 184.235 253.37 185.541 255.016ZM160.781 244.893C160.272 244.623 159.768 244.332 159.259 244.062C159.281 242.636 159.271 241.247 159.293 239.821C161.919 241.126 166.269 241.415 163.009 246.182C162.256 245.735 161.524 245.293 160.781 244.893ZM223.348 185.7C221.222 184.618 221.597 183.041 222.509 181.383C224.714 182.419 224.286 184.027 223.348 185.7ZM188.584 203.731C186.425 202.349 184.531 200.815 185.133 197.799C187.894 198.849 191.105 199.639 188.584 203.731ZM151.853 259.689C155.615 259.083 158.264 259.88 158.305 264.342C160.935 264.709 163.554 265.117 166.179 265.505C165.398 266.505 164.654 267.536 163.915 268.547C163.305 269.324 162.711 270.127 162.117 270.93C159.529 270.574 156.946 270.198 154.384 269.827C151.995 269.48 149.585 269.127 147.18 268.754C148.809 265.744 146.216 260.622 151.853 259.689ZM283.557 129.904C287.392 127.595 289.795 129.4 291.79 132.572C291.71 132.618 291.694 132.681 291.614 132.727C291.488 132.782 291.413 132.897 291.28 132.973C290.92 133.235 290.638 133.54 290.454 133.893C290.322 134.305 290.055 134.637 290.27 135.254C286.859 138.324 284.024 136.628 281.878 133.773C280.872 132.431 281.965 130.844 283.557 129.904ZM247.989 186.62C248.025 186.652 248.04 186.679 248.076 186.711C241.552 190.471 236.813 189.877 235.172 181.52C237.613 182.933 240.161 183.523 242.896 182.487C244.61 183.861 246.275 185.246 247.989 186.62ZM253.756 157C256.02 157.985 257.199 160.693 256.175 162.522C253.632 167.033 249.633 163.997 246.579 164.3C244.88 162.034 242.352 160.778 244.583 158.197C247.272 155.067 250.607 155.644 253.756 157ZM267.22 70.2902C270.866 69.0268 271.369 73.098 273.587 74.339C275.686 75.5256 276.837 77.3317 277.04 79.7572C275.006 81.1825 272.866 80.6558 270.69 80.0079C267.039 78.9434 264.708 76.867 265.321 72.803C265.446 71.8297 266.388 70.5602 267.22 70.2902ZM207.106 148.056C205.862 146.851 205.39 145.517 206.415 143.934C208.311 145.044 209.04 146.335 207.106 148.056ZM178.714 150.139C182.608 148.113 185.578 144.768 189.988 148.608C188.831 152.616 187.653 156.619 186.469 160.642C171.99 169.84 157.51 179.037 142.057 188.87C142.509 183.398 142.798 179.627 143.113 175.842C147.92 170.638 151.554 164.719 153.895 158.029C163.994 161.33 170.981 154.158 178.714 150.139ZM193.485 51.8103C193.802 48.6066 193.126 44.6008 197.178 43.4906C200.698 42.5292 201.895 45.0857 201.756 48.2922C210.603 54.9492 221.985 49.4881 231.404 54.4188C228.678 63.6452 219.831 66.8082 213.784 72.5531C208.72 77.375 203.423 80.7253 200.031 69.7085C198.324 64.1974 191.742 62.2161 185.407 63.4999C183.964 64.3002 182.556 65.2217 181.058 65.8953C178.077 67.1798 175.377 66.5708 174.811 63.243C174.676 62.4911 178.203 61.0842 180.017 59.9804C182.833 54.4465 187.804 52.5749 193.485 51.8103ZM159.002 83.8072C160.294 84.6665 161.612 85.5105 162.903 86.3699C162.903 86.3699 162.903 86.3699 162.882 86.3643C161.722 86.8597 160.546 87.3287 159.37 87.7976C158.62 86.8368 157.654 86.2657 156.453 85.9898C157.046 84.9401 157.885 84.2247 159.002 83.8072ZM8.93594 178.871C12.5121 178.036 14.8428 176.421 16.0057 172.392C17.4162 167.602 20.5461 170.876 22.4151 172.337C25.0663 174.387 25.8473 177.749 22.377 179.194C18.3583 180.85 15.0428 184.819 10.0373 183.885C9.63356 182.211 9.29237 180.554 8.93594 178.871ZM78.5261 22.5691C79.7005 22.1892 80.2558 22.8744 79.9025 24.3683C79.8525 24.5563 78.8393 24.666 78.3592 24.5379C78.0879 24.4654 77.9932 23.8137 77.8095 23.4962C78.0766 23.1649 78.2366 22.6484 78.5261 22.5691ZM-19.1972 128.79C-17.2448 129.602 -15.646 128.888 -14.1642 127.606C-11.3586 129.161 -10.1004 131.152 -11.4053 134.539C-11.9576 136.025 -14.6332 138.934 -9.95061 139.066C-8.69656 141.325 -7.42159 143.589 -6.14667 145.853C-10.1233 149.869 -14.2968 147.658 -18.4299 146.219C-20.2126 144.603 -22.0009 143.007 -23.8101 141.405L-24.7495 141.154C-21.3169 137.754 -20.4588 133.106 -18.9147 128.821L-19.1972 128.79ZM-81.9418 193.685L-81.6357 192.536L-80.8452 193.262L-81.9418 193.685ZM-52.7933 191.111C-57.0162 182.624 -55.8672 179.485 -48.4447 178.984C-48.0843 178.387 -47.6153 177.886 -47.0685 177.428C-46.9231 171.427 -44.765 169.453 -39.5602 173.751C-40.0763 174.597 -40.6913 175.395 -41.3216 176.166C-41.4231 176.296 -41.5094 176.452 -41.611 176.581C-42.6099 179.155 -44.619 181.661 -42.3212 184.534C-44.1841 187.75 -42.0644 190.62 -40.2316 192.049C-27.982 201.628 -18.1755 215.677 -0.0604019 214.989C0.119253 216.244 0.83446 216.749 2.06456 216.495C-0.687412 220.95 -3.30432 225.486 -6.27896 229.769C-6.35409 229.884 -6.4501 229.992 -6.52523 230.106C-8.04331 231.021 -9.61568 231.719 -11.2688 232.218C-11.4928 232.135 -11.65 232.138 -11.8783 231.988C-21.9567 224.666 -37.3778 225.649 -43.203 211.679C-44.1426 209.414 -46.4026 208.498 -48.9977 209.259C-57.0692 204.643 -55.9722 198.091 -52.7933 191.111ZM-0.621655 235.306C-2.13621 230.585 1.87955 229.107 4.36876 226.729C2.59977 223.886 4.13854 221.299 5.12206 218.699C5.51034 219.004 5.91397 219.335 6.29669 219.661C8.58322 221.569 10.7013 223.521 9.70124 227.191C9.0139 227.925 8.19856 228.468 7.23982 228.793C7.70389 234.689 4.07904 235.622 -0.621655 235.306ZM148.038 308.42C148.102 308.347 148.164 308.364 148.223 308.312C150.02 306.936 151.419 307.309 152.737 308.153C153.562 308.664 154.349 309.322 155.184 309.88C152.466 311.436 150.363 309.846 148.214 308.511C148.146 308.516 148.095 308.457 148.038 308.42ZM134.75 321.537C133.288 314.436 141.365 308.204 136.628 300.81C137.588 301.402 138.542 302.014 139.529 302.591C140.064 302.935 140.551 303.289 141.085 303.633C143.31 305.099 145.52 306.539 147.745 308.006C147.747 308.252 147.748 308.499 147.729 308.74C145.658 309.797 143.599 310.813 141.555 311.856C142.373 313.148 144.431 313.563 146.061 314.245C147.993 315.051 149.362 316.289 147.361 319.938C147.025 320.027 146.688 320.116 146.372 320.211C145.698 320.389 145.01 320.54 144.357 320.724C143.542 320.931 142.7 321.154 141.884 321.361L142.415 322.644L143.81 322.524C140.575 324.345 137.857 321.203 134.75 321.537ZM168.368 309.822C166.199 309.488 164.029 309.155 161.839 308.816C160.492 299.353 152.516 297.402 145.548 294.266C144.115 293.436 142.715 292.48 141.191 291.738C129.564 286.285 116.343 291.345 104.603 286.398C104.149 287.35 103.407 287.868 102.644 288.38C100.229 290.062 96.899 290.56 94.8745 292.703C94.2943 293.287 93.6571 293.832 93.3845 294.856C100.127 299.676 107.369 301.363 115.856 301.147C124.752 300.905 127.679 307.457 124.38 317.157C112.793 313.817 101.194 309.937 89.0918 309.793C80.3849 309.66 74.6676 302.922 66.7537 301.659C58.7733 302.659 53.664 295.233 46.2052 294.696C47.6534 290.855 51.373 290.237 54.4732 288.671C54.5609 288.762 54.6694 288.858 54.7626 288.928C55.5113 289.642 56.2447 290.33 56.9782 291.018C57.1897 291.231 57.4375 291.476 57.6546 291.668C61.1349 292.284 64.6097 292.921 68.0845 293.558C69.5245 291.93 69.7067 290.658 69.2571 289.576C68.4428 287.346 65.217 285.858 64.3819 283.622C64.1257 282.905 64.0171 282.138 64.4665 281.206L63.5537 282.282C62.5962 281.512 61.654 280.769 60.7271 280.051C57.8659 278.035 55.0255 276.024 52.2005 274.039C52.0906 274.368 51.9292 274.638 51.804 274.94C51.7163 275.185 51.6078 275.424 51.4784 275.658C51.2934 276.101 51.1391 276.596 50.8858 277.043C51.6721 277.701 52.2204 278.496 52.5517 279.434C52.6297 279.477 52.6604 279.53 52.7383 279.574C54.4946 280.87 56.2244 282.182 57.9543 283.494C56.4556 284.168 54.9416 284.815 53.4332 285.441C52.9003 285.679 52.3882 285.922 51.84 286.134C50.4706 285.231 49.0443 284.291 47.654 283.383C46.1649 282.426 44.7176 281.481 43.255 280.509C34.366 282.654 29.7911 275.572 23.7972 271.466C19.6233 265.9 16.2272 259.513 10.1332 255.783C3.25987 251.621 3.46679 247.739 8.63714 242.096C11.6328 238.825 13.0056 234.091 15.1231 230.003C21.7585 222.134 29.4281 216.509 40.5594 218.788C41.1021 218.933 41.6267 219.23 42.1401 219.232C48.0876 219.232 50.6039 222.544 47.891 227.523C44.897 233.054 42.5847 224.697 39.3286 226.177C31.1962 224.811 30.9277 224.895 33.0199 230.554C34.0347 233.375 34.8338 235.915 33.8405 238.804C32.9025 238.129 31.9061 237.505 31.1003 236.752C28.9571 234.726 26.6148 232.692 23.6092 233.902C22.5865 234.3 21.5528 237.089 21.9955 238.281C23.091 241.302 24.2618 245.552 28.2888 245.039C31.1874 244.65 35.4652 245.882 37.0677 241.545C41.2019 240.21 39.7886 244.173 40.7977 245.672C43.282 249.356 45.2689 248.276 47.4283 245.541C49.2235 246.692 51.0188 247.842 52.814 248.993C54.5333 255.38 58.1965 260.429 63.4111 264.438C63.4319 264.444 63.4417 264.491 63.4626 264.497C63.5628 264.457 63.6518 264.458 63.7784 264.402C67.74 263.044 69.9374 263.944 68.8414 269.065C68.165 268.414 67.3649 267.977 66.4951 267.633C66.3963 267.584 66.3142 267.473 66.2307 267.451C65.7548 268.062 65.6908 268.47 65.3472 269.004C62.4269 273.839 65.38 276.015 70.4705 277.217C70.5011 277.27 70.5373 277.302 70.5734 277.334C70.6208 277.324 70.632 277.283 70.6528 277.288C70.7669 277.028 70.8712 276.72 70.97 276.433C71.0952 276.131 71.2203 275.829 71.3191 275.542C72.5185 274.565 73.7124 273.609 74.8909 272.626C75.4629 273.584 76.2924 274.164 77.3681 274.406C77.9401 275.029 78.6234 275.569 79.2914 276.083C79.4626 276.196 79.5753 276.36 79.7256 276.467C81.277 274.756 82.8075 273.04 84.3478 271.371C87.2226 270.819 90.0974 270.267 92.9723 269.714C92.9876 269.741 93.0086 269.746 93.0294 269.752C99.0137 275.153 106.663 277.575 114.091 278.06C127.105 278.895 139.57 281.038 151.547 286.182C152.693 286.331 153.838 286.48 154.983 286.63C161.005 283.831 166.421 290.444 172.425 287.797C176.755 291.772 180.381 295.782 174.763 301.597C172.393 304.029 170.492 307.055 168.368 309.822Z" fill="#F8F4BE"/>
</svg>
