<svg width="30" height="31" viewBox="0 0 30 31" fill="none" xmlns="http://www.w3.org/2000/svg">
<path d="M15 30.5C23.2843 30.5 30 23.7843 30 15.5C30 7.21573 23.2843 0.5 15 0.5C6.71573 0.5 0 7.21573 0 15.5C0 23.7843 6.71573 30.5 15 30.5Z" fill="#33CCFF"/>
<path d="M24.917 9.54113C24.2843 9.84105 23.5789 10.0231 22.8943 10.141C23.2158 10.0874 23.693 9.47687 23.8901 9.23051C24.1805 8.85562 24.4295 8.42717 24.5643 7.96659C24.5851 7.93445 24.5954 7.8809 24.5643 7.85948C24.5228 7.83805 24.4917 7.85948 24.4606 7.85948C23.693 8.28792 22.9046 8.58784 22.0644 8.81277C21.9918 8.83419 21.9399 8.81277 21.8985 8.76993C21.8258 8.68424 21.7636 8.60926 21.691 8.54499C21.3383 8.23437 20.9545 7.98801 20.5292 7.80592C19.9691 7.57027 19.3571 7.47387 18.745 7.506C18.1538 7.54885 17.5729 7.72023 17.0542 7.99872C16.5252 8.27721 16.0584 8.67352 15.685 9.14482C15.3012 9.63753 15.0107 10.2159 14.8655 10.8265C14.7203 11.4156 14.741 12.0047 14.824 12.6045C14.8344 12.7009 14.824 12.7224 14.741 12.7009C11.4424 12.1975 8.71429 10.9764 6.49446 8.3629C6.4011 8.24508 6.34923 8.24508 6.26625 8.3629C5.29118 9.86247 5.76834 12.2832 6.98199 13.4614C7.14796 13.6221 7.31393 13.7828 7.49027 13.922C7.42803 13.9327 6.61894 13.847 5.90319 13.4614C5.80984 13.3972 5.75797 13.4293 5.7476 13.5471C5.7476 13.7078 5.7476 13.8577 5.77872 14.0398C5.96543 15.5608 6.98199 16.9747 8.38236 17.521C8.54832 17.596 8.73504 17.6602 8.91138 17.6923C8.58982 17.7673 8.26825 17.8209 7.35542 17.7459C7.24132 17.7245 7.19983 17.778 7.24132 17.8959C7.92594 19.8239 9.40929 20.4023 10.5192 20.7343C10.6644 20.7558 10.82 20.7558 10.9652 20.7986C10.9652 20.8093 10.9445 20.8093 10.9341 20.8307C10.5711 21.4091 9.28481 21.8376 8.69355 22.0518C7.61475 22.4374 6.43222 22.6195 5.29118 22.5017C5.10447 22.4695 5.07335 22.4803 5.02148 22.5017C4.96962 22.5338 5.02148 22.5767 5.07335 22.6302C5.30156 22.7909 5.54014 22.9301 5.77872 23.0587C6.50483 23.455 7.26206 23.7763 8.05042 24.0012C12.1374 25.1688 16.743 24.3119 19.8031 21.1628C22.2096 18.6885 23.0602 15.2823 23.0602 11.8655C23.0602 11.7369 23.2158 11.6619 23.2988 11.587C23.9212 11.105 24.4295 10.5159 24.8963 9.87318C25 9.72322 25 9.59469 25 9.54113V9.51971C25 9.46615 25 9.47686 24.917 9.51971V9.54113Z" fill="white"/>
</svg>
